<mxfile host="app.diagrams.net" modified="2022-05-15T14:10:39.376Z" agent="5.0 (Windows)" etag="zcuhIFokrN1HQ-q6NAmt" version="15.5.0" type="github">
  <diagram id="Muz9pPfY8YsB2fUk6h5s" name="Page-1">
    <mxGraphModel dx="1117" dy="549" grid="0" gridSize="10" guides="1" tooltips="1" connect="1" arrows="1" fold="1" page="1" pageScale="1" pageWidth="1169" pageHeight="1654" math="0" shadow="0">
      <root>
        <mxCell id="0" />
        <mxCell id="1" parent="0" />
        <mxCell id="rEOayMjC3FqxbJ5FP5kW-1" value="&lt;b&gt;&lt;font style=&quot;font-size: 17px&quot;&gt;初始化&lt;/font&gt;&lt;/b&gt;" style="rounded=1;whiteSpace=wrap;html=1;strokeWidth=3;" parent="1" vertex="1">
          <mxGeometry x="294" y="150" width="86" height="50" as="geometry" />
        </mxCell>
        <mxCell id="rEOayMjC3FqxbJ5FP5kW-17" style="edgeStyle=orthogonalEdgeStyle;rounded=0;orthogonalLoop=1;jettySize=auto;html=1;exitX=0.5;exitY=1;exitDx=0;exitDy=0;entryX=0.5;entryY=0;entryDx=0;entryDy=0;strokeWidth=3;" parent="1" target="rEOayMjC3FqxbJ5FP5kW-4" edge="1">
          <mxGeometry relative="1" as="geometry">
            <mxPoint x="337" y="200" as="sourcePoint" />
          </mxGeometry>
        </mxCell>
        <mxCell id="rEOayMjC3FqxbJ5FP5kW-18" style="edgeStyle=orthogonalEdgeStyle;rounded=0;orthogonalLoop=1;jettySize=auto;html=1;exitX=0.5;exitY=1;exitDx=0;exitDy=0;entryX=0.5;entryY=0;entryDx=0;entryDy=0;strokeWidth=3;" parent="1" source="rEOayMjC3FqxbJ5FP5kW-4" target="rEOayMjC3FqxbJ5FP5kW-7" edge="1">
          <mxGeometry relative="1" as="geometry" />
        </mxCell>
        <mxCell id="rEOayMjC3FqxbJ5FP5kW-26" style="edgeStyle=orthogonalEdgeStyle;rounded=0;orthogonalLoop=1;jettySize=auto;html=1;entryX=1;entryY=0.5;entryDx=0;entryDy=0;strokeWidth=3;" parent="1" source="rEOayMjC3FqxbJ5FP5kW-4" target="rEOayMjC3FqxbJ5FP5kW-13" edge="1">
          <mxGeometry relative="1" as="geometry">
            <Array as="points">
              <mxPoint x="541" y="255" />
              <mxPoint x="541" y="629" />
            </Array>
          </mxGeometry>
        </mxCell>
        <mxCell id="rEOayMjC3FqxbJ5FP5kW-4" value="&lt;b&gt;&lt;font style=&quot;font-size: 17px&quot;&gt;按键扫描&lt;/font&gt;&lt;/b&gt;" style="rounded=0;whiteSpace=wrap;html=1;strokeWidth=3;" parent="1" vertex="1">
          <mxGeometry x="284" y="230" width="106" height="50" as="geometry" />
        </mxCell>
        <mxCell id="rEOayMjC3FqxbJ5FP5kW-20" style="edgeStyle=orthogonalEdgeStyle;rounded=0;orthogonalLoop=1;jettySize=auto;html=1;exitX=0.5;exitY=1;exitDx=0;exitDy=0;entryX=0.5;entryY=0;entryDx=0;entryDy=0;strokeWidth=3;" parent="1" source="rEOayMjC3FqxbJ5FP5kW-5" target="rEOayMjC3FqxbJ5FP5kW-10" edge="1">
          <mxGeometry relative="1" as="geometry" />
        </mxCell>
        <mxCell id="Cb8lvjK5kSO8AXCbvgC5-3" style="edgeStyle=orthogonalEdgeStyle;rounded=0;orthogonalLoop=1;jettySize=auto;html=1;exitX=0.5;exitY=1;exitDx=0;exitDy=0;strokeWidth=3;" edge="1" parent="1" source="rEOayMjC3FqxbJ5FP5kW-5" target="rEOayMjC3FqxbJ5FP5kW-9">
          <mxGeometry relative="1" as="geometry" />
        </mxCell>
        <mxCell id="Cb8lvjK5kSO8AXCbvgC5-4" style="edgeStyle=orthogonalEdgeStyle;rounded=0;orthogonalLoop=1;jettySize=auto;html=1;exitX=0.5;exitY=1;exitDx=0;exitDy=0;entryX=0.5;entryY=0;entryDx=0;entryDy=0;strokeWidth=3;" edge="1" parent="1" source="rEOayMjC3FqxbJ5FP5kW-5" target="rEOayMjC3FqxbJ5FP5kW-11">
          <mxGeometry relative="1" as="geometry" />
        </mxCell>
        <mxCell id="rEOayMjC3FqxbJ5FP5kW-5" value="&lt;b&gt;&lt;font style=&quot;font-size: 17px&quot;&gt;虚部判断&lt;/font&gt;&lt;/b&gt;" style="rhombus;whiteSpace=wrap;html=1;strokeWidth=3;" parent="1" vertex="1">
          <mxGeometry x="277" y="396" width="120" height="70" as="geometry" />
        </mxCell>
        <mxCell id="rEOayMjC3FqxbJ5FP5kW-19" style="edgeStyle=orthogonalEdgeStyle;rounded=0;orthogonalLoop=1;jettySize=auto;html=1;exitX=0.5;exitY=1;exitDx=0;exitDy=0;entryX=0.5;entryY=0;entryDx=0;entryDy=0;strokeWidth=3;" parent="1" source="rEOayMjC3FqxbJ5FP5kW-7" target="rEOayMjC3FqxbJ5FP5kW-5" edge="1">
          <mxGeometry relative="1" as="geometry" />
        </mxCell>
        <mxCell id="rEOayMjC3FqxbJ5FP5kW-27" style="edgeStyle=orthogonalEdgeStyle;rounded=0;orthogonalLoop=1;jettySize=auto;html=1;entryX=0;entryY=0.5;entryDx=0;entryDy=0;strokeWidth=3;" parent="1" source="rEOayMjC3FqxbJ5FP5kW-7" target="rEOayMjC3FqxbJ5FP5kW-13" edge="1">
          <mxGeometry relative="1" as="geometry">
            <Array as="points">
              <mxPoint x="127" y="335" />
              <mxPoint x="127" y="629" />
            </Array>
          </mxGeometry>
        </mxCell>
        <mxCell id="rEOayMjC3FqxbJ5FP5kW-7" value="&lt;b&gt;&lt;font style=&quot;font-size: 17px&quot;&gt;计算复阻抗&lt;/font&gt;&lt;/b&gt;" style="rounded=0;whiteSpace=wrap;html=1;strokeWidth=3;" parent="1" vertex="1">
          <mxGeometry x="284" y="310" width="106" height="50" as="geometry" />
        </mxCell>
        <mxCell id="Cb8lvjK5kSO8AXCbvgC5-6" style="edgeStyle=orthogonalEdgeStyle;rounded=0;orthogonalLoop=1;jettySize=auto;html=1;entryX=0.25;entryY=0;entryDx=0;entryDy=0;strokeWidth=3;" edge="1" parent="1" source="rEOayMjC3FqxbJ5FP5kW-9" target="rEOayMjC3FqxbJ5FP5kW-13">
          <mxGeometry relative="1" as="geometry">
            <Array as="points">
              <mxPoint x="223" y="584" />
              <mxPoint x="311" y="584" />
            </Array>
          </mxGeometry>
        </mxCell>
        <mxCell id="rEOayMjC3FqxbJ5FP5kW-9" value="&lt;b&gt;&lt;font style=&quot;font-size: 17px&quot;&gt;电感&lt;/font&gt;&lt;/b&gt;" style="rounded=0;whiteSpace=wrap;html=1;strokeWidth=3;" parent="1" vertex="1">
          <mxGeometry x="190" y="530" width="66" height="40" as="geometry" />
        </mxCell>
        <mxCell id="Cb8lvjK5kSO8AXCbvgC5-1" style="edgeStyle=orthogonalEdgeStyle;rounded=0;orthogonalLoop=1;jettySize=auto;html=1;exitX=0.5;exitY=1;exitDx=0;exitDy=0;entryX=0.5;entryY=0;entryDx=0;entryDy=0;strokeWidth=3;" edge="1" parent="1" source="rEOayMjC3FqxbJ5FP5kW-10" target="rEOayMjC3FqxbJ5FP5kW-13">
          <mxGeometry relative="1" as="geometry" />
        </mxCell>
        <mxCell id="rEOayMjC3FqxbJ5FP5kW-10" value="&lt;b&gt;&lt;font style=&quot;font-size: 17px&quot;&gt;电阻&lt;/font&gt;&lt;/b&gt;" style="rounded=0;whiteSpace=wrap;html=1;strokeWidth=3;" parent="1" vertex="1">
          <mxGeometry x="304" y="530" width="66" height="40" as="geometry" />
        </mxCell>
        <mxCell id="Cb8lvjK5kSO8AXCbvgC5-7" style="edgeStyle=orthogonalEdgeStyle;rounded=0;orthogonalLoop=1;jettySize=auto;html=1;entryX=0.75;entryY=0;entryDx=0;entryDy=0;strokeWidth=3;" edge="1" parent="1" source="rEOayMjC3FqxbJ5FP5kW-11" target="rEOayMjC3FqxbJ5FP5kW-13">
          <mxGeometry relative="1" as="geometry">
            <Array as="points">
              <mxPoint x="451" y="584" />
              <mxPoint x="363" y="584" />
            </Array>
          </mxGeometry>
        </mxCell>
        <mxCell id="rEOayMjC3FqxbJ5FP5kW-11" value="&lt;b&gt;&lt;font style=&quot;font-size: 17px&quot;&gt;电容&lt;/font&gt;&lt;/b&gt;" style="rounded=0;whiteSpace=wrap;html=1;strokeWidth=3;" parent="1" vertex="1">
          <mxGeometry x="418" y="530" width="66" height="40" as="geometry" />
        </mxCell>
        <mxCell id="rEOayMjC3FqxbJ5FP5kW-22" style="edgeStyle=orthogonalEdgeStyle;rounded=0;orthogonalLoop=1;jettySize=auto;html=1;exitX=0.5;exitY=1;exitDx=0;exitDy=0;entryX=0.5;entryY=0;entryDx=0;entryDy=0;strokeWidth=3;" parent="1" source="rEOayMjC3FqxbJ5FP5kW-13" target="rEOayMjC3FqxbJ5FP5kW-14" edge="1">
          <mxGeometry relative="1" as="geometry" />
        </mxCell>
        <mxCell id="rEOayMjC3FqxbJ5FP5kW-13" value="&lt;b&gt;&lt;font style=&quot;font-size: 17px&quot;&gt;OLED显示&lt;/font&gt;&lt;/b&gt;" style="rounded=0;whiteSpace=wrap;html=1;strokeWidth=3;" parent="1" vertex="1">
          <mxGeometry x="285.5" y="604" width="103" height="50" as="geometry" />
        </mxCell>
        <mxCell id="rEOayMjC3FqxbJ5FP5kW-14" value="&lt;b&gt;&lt;font style=&quot;font-size: 17px&quot;&gt;结束&lt;/font&gt;&lt;/b&gt;" style="rounded=1;whiteSpace=wrap;html=1;strokeWidth=3;" parent="1" vertex="1">
          <mxGeometry x="300.5" y="688" width="73" height="50" as="geometry" />
        </mxCell>
        <mxCell id="rEOayMjC3FqxbJ5FP5kW-35" value="&lt;b&gt;&lt;font style=&quot;font-size: 17px&quot;&gt;&amp;gt;0&lt;/font&gt;&lt;/b&gt;" style="text;html=1;align=center;verticalAlign=middle;resizable=0;points=[];autosize=1;strokeColor=none;" parent="1" vertex="1">
          <mxGeometry x="221" y="473" width="30" height="20" as="geometry" />
        </mxCell>
        <mxCell id="rEOayMjC3FqxbJ5FP5kW-37" value="&lt;b&gt;&lt;font style=&quot;font-size: 17px&quot;&gt;=0&lt;/font&gt;&lt;/b&gt;" style="text;html=1;align=center;verticalAlign=middle;resizable=0;points=[];autosize=1;strokeColor=none;" parent="1" vertex="1">
          <mxGeometry x="307" y="473" width="30" height="20" as="geometry" />
        </mxCell>
        <mxCell id="Cb8lvjK5kSO8AXCbvgC5-5" value="&lt;b&gt;&lt;font style=&quot;font-size: 17px&quot;&gt;&amp;lt;0&lt;/font&gt;&lt;/b&gt;" style="text;html=1;align=center;verticalAlign=middle;resizable=0;points=[];autosize=1;strokeColor=none;" vertex="1" parent="1">
          <mxGeometry x="423" y="473" width="29" height="20" as="geometry" />
        </mxCell>
      </root>
    </mxGraphModel>
  </diagram>
</mxfile>
